<?xml version="1.0" encoding="utf-8"?>
<!-- Generator: Adobe Illustrator 16.0.0, SVG Export Plug-In . SVG Version: 6.00 Build 0)  -->
<!DOCTYPE svg PUBLIC "-//W3C//DTD SVG 1.1//EN" "http://www.w3.org/Graphics/SVG/1.1/DTD/svg11.dtd">
<svg version="1.1" id="Layer_1" xmlns="http://www.w3.org/2000/svg" xmlns:xlink="http://www.w3.org/1999/xlink" x="0px" y="0px"
	 width="792px" height="792px" viewBox="0 0 792 792" enable-background="new 0 0 792 792" xml:space="preserve">
<g>
  <!-- hexagon background
	<linearGradient id="SVGID_1_" gradientUnits="userSpaceOnUse" x1="212.3779" y1="352" x2="544.9561" y2="352">
		<stop  offset="0.2097" style="stop-color:#662D91"/>
		<stop  offset="0.8548" style="stop-color:#F7931E"/>
	</linearGradient>
	<polygon fill="url(#SVGID_1_)" stroke="#000000" stroke-width="2" stroke-miterlimit="10" points="295.522,496 212.378,352
		295.522,208 461.812,208 544.956,352 461.812,496 	"/>
	 -->
	<!-- white outline
	<polygon fill="none" stroke="#FFFFFF" stroke-width="2" stroke-miterlimit="10" points="300.937,489 222.378,352.5 300.937,216
		458.055,216 536.613,352.5 458.055,489 	"/>
	 -->
</g>
<g>
	<g>
	  <!-- mainland africa
		<path fill-rule="evenodd" clip-rule="evenodd" d="M417.653,309.071c-0.274,1.382,0.107,2.678,1.769,3.574
			c2.354,1.271,2.71,3.925,3.731,6.071c0.482,1.013,1.096,1.674,2.08,1.979c2.813,0.869,4.674,2.969,6.558,5.019
			c0.723,0.785,0.863,1.905,0.359,2.793c-0.619,1.096,0.037,1.636,0.576,2.337c0.604,0.785,1.327,0.93,2.216,0.567
			c1.117-0.456,2.246-0.632,3.408-0.119c0.189,0.086,0.517,0.158,0.64,0.062c2.187-1.733,4.895-1.121,7.342-1.656
			c0.525-0.115,0.887-0.47,1.187-0.873c0.844-1.14,1.61-0.529,1.798,0.328c0.283,1.291,0.294,2.537-0.346,3.966
			c-0.888,1.986-2.14,3.771-2.841,5.909c-1.038,3.156-2.607,6.226-5.681,8.088c-0.141,0.085-0.362,0.178-0.387,0.299
			c-0.562,2.902-3.296,3.522-5.217,4.994c-2.385,1.823-4.415,3.982-6.078,6.479c-0.44,0.663-0.926,1.313-1.581,1.705
			c-3.162,1.884-4.144,5.256-5.724,8.22c-0.157,0.297-0.335,0.7-0.095,0.953c1.313,1.374,1.078,3.107,1.281,4.781
			c0.206,1.715,0.875,3.284,2.076,4.652c0.86,0.979,1.155,2.269,0.673,3.609c-0.525,1.463-0.411,2.974-0.227,4.469
			c0.588,4.764,0.548,5.854-4.481,8.444c-1.918,0.987-3.734,1.844-4.951,3.734c-0.696,1.085-1.979,1.604-3.039,2.318
			c-0.955,0.644-0.92,1.226-0.586,2.358c0.758,2.575,2.18,5.08,1.291,7.986c-0.484,1.579-1.176,2.728-2.921,2.994
			c-0.713,0.109-1.433,0.257-2.106,0.507c-0.7,0.261-1.373,0.737-1.15,1.606c0.463,1.825-0.442,3.519-0.403,5.3
			c0.013,0.665-0.358,1.344-0.894,1.746c-1.582,1.19-2.345,2.916-3.282,4.565c-1.932,3.391-4.619,6.143-7.688,8.525
			c-0.733,0.568-1.443,1.206-2.556,0.761c-0.555-0.221-1.139,0.107-1.345,0.707c-0.587,1.713-1.845,1.486-3.135,1.123
			c-0.751-0.21-1.466-0.538-2.211-0.767c-0.774-0.238-1.53-0.242-2.202,0.339c-2.213,1.912-4.906,1.613-7.421,1.238
			c-2.358-0.354-3.595-3.081-2.825-5.332c0.19-0.556,0.104-1.094-0.091-1.634c-1.026-2.83-2.013-5.673-3.076-8.485
			c-0.473-1.253-1.813-1.746-2.652-2.7c-0.696-0.791-1.024-1.563-1.19-2.627c-0.54-3.462-0.521-6.968-1.004-10.425
			c-0.088-0.64-0.423-1.275-0.769-1.836c-1.661-2.707-3.175-5.502-4.767-8.246c-1.24-2.142-1.04-4.748-0.9-7.168
			c0.126-2.169,0.98-4.226,1.598-6.309c0.211-0.714,0.766-1.032,1.368-1.369c1.837-1.023,2.143-2.965,0.813-4.606
			c-0.955-1.181-1.451-2.504-0.835-4.017c0.255-0.626,0.141-1.17-0.088-1.771c-0.892-2.342-2.114-4.541-2.871-6.943
			c-0.748-2.381-2.9-3.732-4.353-5.6c-0.721-0.927-1.228-1.988-2.01-2.863c-0.576-0.643-0.307-1.369-0.101-2.062
			c0.652-2.188,1.294-4.381,1.989-6.555c0.292-0.915,0.137-1.584-0.627-2.206c-0.773-0.634-1.441-1.396-2.167-2.088
			c-1.253-1.196-2.757-1.362-4.25-0.482c-1.369,0.807-2.718,0.262-3.188-1.291c-0.69-2.276-1.038-2.516-3.402-2.562
			c-2.485-0.048-4.77,0.226-6.95,1.782c-1.733,1.233-4.112,1.204-6.15,1.957c-0.876,0.322-1.949-0.613-2.988-0.854
			c-2.913-0.681-5.626-0.275-8.26,1.061c-2.069,1.048-4.194,0.558-6-0.879c-2.247-1.787-3.921-4.263-6.761-5.37
			c-0.979-0.384-1.66-1.602-1.725-2.706c-0.078-1.314-0.782-2.116-1.539-3.025c-1.278-1.532-3.002-2.662-3.994-4.449
			c-0.207-0.373-0.607-0.43-0.988-0.545c-1.927-0.573-2.706-2.16-1.712-3.832c0.469-0.789,0.415-1.102-0.298-1.553
			c-0.415-0.26-0.707-0.707-1.074-1.046c-0.587-0.537-0.536-0.907,0.089-1.468c2.087-1.876,3.106-7.061,1.947-9.561
			c-0.19-0.406-0.549-0.85-0.227-1.236c0.975-1.156,0.468-2.021-0.242-3.104c-1.096-1.674-0.099-3.285,0.541-4.865
			c1.202-2.978,3.457-5.361,4.684-8.321c0.064-0.155,0.132-0.419,0.226-0.433c2.553-0.331,2.216-3.152,3.748-4.338
			c1.584-1.225,3.188-2.43,4.85-3.551c1.226-0.826,1.641-1.723,0.842-3.078c-0.547-0.927-0.496-1.797,0.521-2.455
			c0.587-0.379,0.883-0.988,1.048-1.66c0.512-2.086,1.868-3.479,3.874-3.992c1.973-0.504,2.79-1.855,3.365-3.555
			c0.126-0.371,0.258-0.74,0.421-1.092c0.642-1.369,1.634-1.688,2.787-0.719c1.248,1.048,2.423,1.178,4.088,0.975
			c2.001-0.25,3.728-0.615,5.584-1.519c1.26-0.61,2.479-1.203,3.678-1.975c1.737-1.121,3.709-1.937,5.85-1.272
			c2.219,0.691,4.29,0.019,6.404-0.421c0.487-0.103,1.045-0.315,1.475-0.177c1.646,0.525,3.156,0.879,4.231-1.012
			c0.226-0.396,0.794-0.35,1.242-0.199c1.03,0.35,1.979,0.959,3.171,0.249c0.519-0.308,1.318,1.306,0.753,2.059
			c-0.863,1.147-0.624,2.171-0.115,3.255c0.706,1.51-0.203,2.368-1.168,3.291c-1.379,1.315-1.334,1.434,0.347,2.298
			c0.794,0.409,1.646,0.736,2.362,1.257c1.066,0.771,2.067,1.014,3.406,0.629c1.94-0.559,4.929,1.065,5.685,2.965
			c0.525,1.316,1.615,1.496,2.725,1.477c1.699-0.031,3.199,0.23,4.351,1.635c0.501,0.61,1.211,0.557,1.821,0.148
			c0.792-0.532,1.332-1.322,1.053-2.279c-0.478-1.64-0.13-2.816,1.451-3.605c1.763-0.881,3.917-0.977,5.023,0.281
			c1.23,1.396,2.611,1.767,4.11,2.158c3.422,0.895,7.011,1.076,10.342,2.38c0.828,0.323,1.533-0.062,2.16-0.563
			c0.527-0.425,1.061-0.749,1.748-0.908c2.339-0.544,3.092-0.295,3.423,2.009c0.788,5.473,3.874,9.885,6.401,14.557
			c0.69,1.28,1.472,2.494,1.374,4.031c-0.042,0.662,0.268,1.129,0.786,1.563C417.032,304.114,417.656,305.498,417.653,309.071z"/>
			-->
			<!-- madagascar
		<path fill-rule="evenodd" clip-rule="evenodd" d="M447.482,389.913c0,1.133,0.009,1.913-0.003,2.692
			c-0.008,0.579-0.026,1.155-0.866,1.102c-0.933-0.06-1.145,0.551-1.102,1.298c0.198,3.419-1.118,6.553-1.881,9.783
			c-0.678,2.871-1.564,5.69-2.336,8.538c-0.594,2.189-2.514,2.824-4.255,3.64c-0.512,0.24-1.099,0.102-1.56-0.312
			c-1.373-1.238-3.534-1.969-2.883-4.502c0.011-0.048-0.004-0.12-0.035-0.16c-2.691-3.418-0.115-6.275,1.038-9.255
			c0.246-0.631,0.153-1.014-0.17-1.515c-1.323-2.054-0.448-4.122,0.15-6.105c0.285-0.94,1.481-0.876,2.345-0.951
			c1.28-0.106,2.634,0.079,2.947-1.72c0.077-0.438,0.736-0.458,1.068-0.727c1.555-1.263,2.659-2.808,2.745-4.9
			c0.055-1.355,1.303-1.503,2.107-2.058c0.716-0.494,1.029,0.254,1.457,0.673C447.655,386.804,447.604,388.521,447.482,389.913z"/>
			-->
	</g>
	<g>
		  <!-- r logo -->
	<defs>
		<linearGradient id="gradientFill-1" x1="0" x2="1" y1="0" y2="1" gradientUnits="objectBoundingBox" spreadMethod="pad">
      <stop offset="0" stop-color="rgb(203,206,208)" stop-opacity="1"/>
      <stop offset="1" stop-color="rgb(132,131,139)" stop-opacity="1"/>
    </linearGradient>
    <linearGradient id="gradientFill-2" x1="0" x2="1" y1="0" y2="1" gradientUnits="objectBoundingBox" spreadMethod="pad">
      <stop offset="0" stop-color="rgb(39,109,195)" stop-opacity="1"/>
      <stop offset="1" stop-color="rgb(22,92,170)" stop-opacity="1"/>
    </linearGradient>
  </defs>
  <path d="M361.453,485.937 C162.329,485.937 0.906,377.828 0.906,244.469 C0.906,111.109 162.329,3.000 361.453,3.000 C560.578,3.000 722.000,111.109 722.000,244.469 C722.000,377.828 560.578,485.937 361.453,485.937 ZM416.641,97.406 C265.289,97.406 142.594,171.314 142.594,262.484 C142.594,353.654 265.289,427.562 416.641,427.562 C567.992,427.562 679.687,377.033 679.687,262.484 C679.687,147.971 567.992,97.406 416.641,97.406 Z" fill="url(#gradientFill-1)" fill-rule="evenodd" transform="matrix(0.106 0 0 0.106 388.7285 318.0317)"/>
  <path d="M550.000,377.000 C550.000,377.000 571.822,383.585 584.500,390.000 C588.899,392.226 596.510,396.668 602.000,402.500 C607.378,408.212 610.000,414.000 610.000,414.000 L696.000,559.000 L557.000,559.062 L492.000,437.000 C492.000,437.000 478.690,414.131 470.500,407.500 C463.668,401.969 460.755,400.000 454.000,400.000 C449.298,400.000 420.974,400.000 420.974,400.000 L421.000,558.974 L298.000,559.026 L298.000,152.938 L545.000,152.938 C545.000,152.938 657.500,154.967 657.500,262.000 C657.500,369.033 550.000,377.000 550.000,377.000 ZM496.500,241.024 L422.037,240.976 L422.000,310.026 L496.500,310.002 C496.500,310.002 531.000,309.895 531.000,274.877 C531.000,239.155 496.500,241.024 496.500,241.024 Z" fill="url(#gradientFill-2)" fill-rule="evenodd" transform="matrix(0.106 0 0 0.106 388.7285 318.0317)"/>

		<!-- A -->
		<path fill="#FFFFFF" d="M336.119,369.078h-9.614l-1.557-6.807h-9.768l-1.618,6.807h-9.432l10.805-40.748h10.378L336.119,369.078z
			 M323.177,354.945c-1.384-6.063-2.422-11.832-3.113-17.307h-0.122c-0.732,5.637-1.76,11.406-3.082,17.307H323.177z"/>

		<!-- f -->
		<path fill="#FFFFFF" d="M336.431,340.996v-6.501c0-2.625,0.849-4.686,2.548-6.181c1.698-1.496,4.064-2.244,7.098-2.244h3.54v8.761
			h-2.229c-0.631,0-1.145,0.229-1.541,0.687s-0.595,1.063-0.595,1.815v3.663h4.364v7.387h-4.364v20.695h-8.821v-20.695h-3.113
			v-7.387H336.431z"/>

		<!-- r -->
		<path fill="#FFFFFF" d="M358.99,340.996v4.701h0.122c2.116-3.663,4.344-5.494,6.685-5.494c0.346,0,0.824,0.061,1.435,0.183v8.699
			c-1.078-0.183-2.075-0.274-2.991-0.274c-3.255,0-4.883,2.106-4.883,6.318v13.949h-8.853v-28.082H358.99z"/>

		<!-- i 	-->
		<path fill="#FFFFFF" d="M369.28,332.572c0-1.303,0.458-2.412,1.373-3.327c0.916-0.915,2.015-1.374,3.297-1.374
			c1.302,0,2.411,0.459,3.328,1.374c0.914,0.915,1.373,2.024,1.373,3.327c0,1.282-0.459,2.386-1.373,3.312
			c-0.917,0.927-2.026,1.389-3.328,1.389c-1.262,0-2.355-0.462-3.281-1.389C369.742,334.958,369.28,333.854,369.28,332.572z
			 M369.524,340.996h8.883v28.082h-8.883V340.996z"/>

		<!-- c -->
		<path fill="#FFFFFF" d="M396.512,360.5v7.326c-2.116,1.423-4.243,2.136-6.379,2.136c-3.154,0-5.683-1.368-7.585-4.105
			c-1.903-2.736-2.854-6.414-2.854-11.034c0-4.375,0.977-7.937,2.931-10.683c1.953-2.747,4.477-4.121,7.569-4.121
			c2.157,0,4.283,0.764,6.38,2.289v7.266c-1.201-0.632-2.279-0.947-3.235-0.947c-1.425,0-2.575,0.576-3.45,1.726
			s-1.312,2.681-1.312,4.593c0,2.015,0.428,3.603,1.281,4.762c0.854,1.16,2.015,1.74,3.48,1.74
			C394.232,361.447,395.291,361.131,396.512,360.5z"/>

		<!-- a -->
		<path fill="#FFFFFF" d="M411.595,369.078v-3.693h-0.122c-1.078,1.588-2.121,2.758-3.128,3.51c-1.008,0.752-2.193,1.13-3.557,1.13
			c-2.666,0-4.792-1.364-6.38-4.091c-1.586-2.727-2.381-6.43-2.381-11.11c0-4.497,0.804-8.078,2.412-10.744
			c1.607-2.665,3.724-3.998,6.349-3.998c1.403,0,2.595,0.351,3.571,1.053s1.995,1.827,3.053,3.373h0.122v-3.511h8.882v28.082
			H411.595z M411.595,354.884c0-4.66-1.141-6.99-3.419-6.99c-2.299,0-3.448,2.33-3.448,6.99c0,4.843,1.189,7.265,3.571,7.265
			C410.496,362.149,411.595,359.727,411.595,354.884z"/>
	</g>
</g>
</svg>
